HIERARCHY
ROOT ui
{
	 OFFSET 0 0 0
	 CHANNELS 3 XPosition YPosition Z Position
	 EndSite
	 {
	 OFFSET 0 -1 0
	 }
}
ROOT li
{
	 OFFSET 0 0 0
	 CHANNELS 3 XPosition YPosition Z Position
	 EndSite
	 {
	 OFFSET 0 -1 0
	 }
}
ROOT ul
{
	 OFFSET 0 0 0
	 CHANNELS 3 XPosition YPosition Z Position
	 EndSite
	 {
	 OFFSET 0 -1 0
	 }
}
ROOT ll
{
	 OFFSET 0 0 0
	 CHANNELS 3 XPosition YPosition Z Position
	 EndSite
	 {
	 OFFSET 0 -1 0
	 }
}
ROOT tt
{
	 OFFSET 0 0 0
	 CHANNELS 3 XPosition YPosition Z Position
	 EndSite
	 {
	 OFFSET 0 -1 0
	 }
}
ROOT tb
{
	 OFFSET 0 0 0
	 CHANNELS 3 XPosition YPosition Z Position
	 EndSite
	 {
	 OFFSET 0 -1 0
	 }
}
ROOT td
{
	 OFFSET 0 0 0
	 CHANNELS 3 XPosition YPosition Z Position
	 EndSite
	 {
	 OFFSET 0 -1 0
	 }
}
ROOT v
{
	 OFFSET 0 0 0
	 CHANNELS 3 XPosition YPosition Z Position
	 EndSite
	 {
	 OFFSET 0 -1 0
	 }
}
ROOT bn
{
	 OFFSET 0 0 0
	 CHANNELS 3 XPosition YPosition Z Position
	 EndSite
	 {
	 OFFSET 0 -1 0
	 }
}
MOTION
Frames: 10
Frame Time: 0.002
-0.011841432571411133	-5.460360050201416E-4	0		0.44162008666992186	-2.3574052734375	0		-1.21455322265625	0.07428849792480469	0		-0.797606201171875	-2.597884521484375	0		1.508822265625	-0.614056396484375	0		3.14790966796875	0.003251620054244995	0		4.628236328125	0.10072504425048828	0		5.60354150390625	0.18611273193359376	0		-0.2453143768310547	5.93953662109375	0		
0.03188416290283203	0.002293785095214844	0		0.44334616088867185	-2.355692626953125	0		-1.125900146484375	0.07318424224853516	0		-0.7979176025390625	-2.5981474609375	0		1.5084832763671876	-0.6142871704101562	0		3.152396240234375	-0.0050577688217163085	0		4.6310107421875	0.10647453308105469	0		5.60625	0.19777436828613282	0		-0.2305622100830078	5.94797021484375	0		
0.026547733306884765	0.00714362096786499	0		0.39312435913085936	-2.34690869140625	0		-1.201305419921875	0.07545591735839843	0		-0.8271187744140625	-2.588819091796875	0		1.5200721435546876	-0.6137596435546875	0		3.137412109375	0.017051738739013673	0		4.62985693359375	0.12032441711425781	0		5.608892578125	0.209476806640625	0		-0.36353704833984374	5.9284375	0		
0.03989033889770508	-3.922080099582672E-4	0		0.448634521484375	-2.349302001953125	0		-1.139645263671875	0.08290119171142578	0		-0.7807659301757812	-2.599052978515625	0		1.5137210693359375	-0.606853271484375	0		3.139818603515625	0.012811651229858398	0		4.63417822265625	0.11207759857177735	0		5.60853125	0.20925914001464843	0		-0.23175579833984375	5.94745849609375	0		
-0.01959876823425293	0.0035770370960235597	0		0.41809930419921876	-2.350916748046875	0		-1.202382568359375	0.07490310668945313	0		-0.83010546875	-2.59131201171875	0		1.5070108642578126	-0.614931640625	0		3.16239404296875	0.019177480697631834	0		4.62465478515625	0.11414215850830078	0		5.60813134765625	0.20909202575683594	0		-0.24670115661621095	5.936498046875	0		
0.029765316009521484	0.0013148080110549926	0		0.4414602966308594	-2.356630859375	0		-1.1408179931640625	0.08235556030273437	0		-0.8085518798828125	-2.58802587890625	0		1.50642529296875	-0.6151203002929687	0		3.124837646484375	0.021799468994140626	0		4.62404638671875	0.11405088043212891	0		5.604748046875	0.19701646423339844	0		-0.24845004272460938	5.93827490234375	0		
-0.04091851806640625	-4.751180112361908E-4	0		0.3988553466796875	-2.358979736328125	0		-1.20362939453125	0.07436093139648438	0		-0.78744873046875	-2.605727783203125	0		1.5058104248046875	-0.6152918090820313	0		3.135094970703125	0.016461761474609374	0		4.63307568359375	0.09778984832763672	0		5.607251953125	0.2089339141845703	0		-0.23411924743652343	5.94673095703125	0		
0.037425174713134765	-0.0013064759969711303	0		0.4552996520996094	-2.35934326171875	0		-1.125268310546875	0.07448201751708984	0		-0.8178126220703125	-2.596362548828125	0		1.4803236083984375	-0.60793505859375	0		3.146308837890625	0.010131093978881836	0		4.63481982421875	0.11771920776367187	0		5.61387158203125	0.20340867614746094	0		-0.23308341979980468	5.94346728515625	0		
-0.04308917236328125	0.007124448776245117	0		0.4220252990722656	-2.344853759765625	0		-1.125945556640625	0.07422958374023438	0		-0.8050857543945312	-2.582869140625	0		1.519628173828125	-0.6108848876953125	0		3.140962158203125	0.026171117782592773	0		4.644138671875	0.11752407836914062	0		5.60926123046875	0.22100141906738283	0		-0.23498588562011719	5.94527490234375	0		
0.0360743408203125	-0.001691781997680664	0		0.43921661376953125	-2.357384033203125	0		-1.13658349609375	0.07618937683105469	0		-0.7979009399414062	-2.5962568359375	0		1.5038826904296876	-0.615690673828125	0		3.117901611328125	0.007591177940368652	0		4.62621484375	0.10591551208496094	0		5.60287451171875	0.19721682739257812	0		-0.25115838623046877	5.93538330078125	0		
